<svg width="878" height="878" viewBox="0 0 878 878" fill="none" xmlns="http://www.w3.org/2000/svg">
<g id="ActiveHealthyPeopleL">
<g id="Fill">
<g id="Vector" opacity="0.2">
<path d="M135.183 534.523C156.345 480.028 269.624 477.303 323.619 482.674H465.84C518.667 482.674 528.626 495.676 551.422 515.138C574.218 534.601 601.059 609.104 607.672 635.028C614.286 660.953 551.733 784.034 495.56 833.003C450.591 871.928 375.434 825.217 343.458 797.425C336.845 806.066 312.337 828.565 267.446 849.273C211.273 874.73 164.981 794.077 125.302 764.572C85.6233 735.066 108.73 602.565 135.183 534.523Z" fill="#D99459"/>
<path d="M376.524 443.749C376.524 414.555 419.548 174.775 442.655 152.12C465.762 129.466 489.336 61.4244 535.239 54.8849C581.142 48.3455 644.161 9.57581 693.877 9.57581H769.111C770.481 9.41955 771.864 9.41955 773.234 9.57581H769.111C752.85 10.5879 720.563 23.6668 693.877 71.0779C657.543 135.927 637.704 213.7 608.295 246.086C578.886 278.472 555.39 333.59 525.592 352.975C495.794 372.36 535.55 333.59 476.032 388.631C412.235 432.772 383.137 443.749 376.524 443.749Z" fill="#D99459"/>
<path d="M267.446 262.357C274.059 256.985 289.308 246.164 297.166 246.164L360.03 349.861L350.071 434.096C347.893 413.543 339.49 366.054 323.619 340.13C306.257 313.247 287.508 287.287 267.446 262.357Z" fill="#D99459"/>
</g>
</g>
<g id="Stroke">
<path id="Vector_2" d="M330.308 487.734C330.308 487.734 302.3 471.697 243.949 486.489C185.597 501.28 117.599 524.713 109.118 664.689C100.638 804.665 196.645 853.71 216.485 859.783C236.324 865.855 305.178 875.353 326.341 846.003L347.58 816.342C376.527 841.759 413.956 855.373 452.457 854.489C516.099 852.387 585.653 764.26 592.5 738.881C601.836 704.004 637.08 613.775 564.958 538.493C492.836 463.211 363.608 493.962 363.608 493.962C363.608 493.962 393.094 452.935 385.392 404.823C377.69 356.712 357.772 303.618 336.61 277.615C315.448 251.613 304.789 253.56 304.789 253.56C304.789 253.56 267.367 278.316 272.346 286.802C277.325 295.288 313.734 315.931 334.199 362.006C349.759 397.038 367.809 445.929 369.21 451.534C370.61 457.139 413.634 464.768 446.155 440.09C478.676 415.411 564.102 342.543 598.724 273.334C633.346 204.124 627.199 174.619 682.828 114.285C710.677 83.0087 740.902 53.9355 773.233 27.3255C716.17 5.20962 652.68 6.58097 596.624 31.1402C500.538 71.8561 442.576 164.498 426.316 220.317C410.055 276.136 410.755 333.512 423.515 361.772C436.274 390.032 448.956 395.637 457.436 382.947C465.917 370.258 489.802 260.8 548.153 171.271C606.505 81.7432 625.955 77.8506 637.625 73.9581" stroke="#D99459" stroke-width="16" stroke-linecap="round" stroke-linejoin="round"/>
</g>
</g>
</svg>
