<svg width="878" height="878" viewBox="0 0 878 878" fill="none" xmlns="http://www.w3.org/2000/svg">
<g id="ConnectedCulturalExperiencesL">
<g id="Fill">
<g id="Vector 73" opacity="0.2">
<path d="M380.985 503.046C342.045 488.31 261.913 434.879 252.905 339.045C241.646 219.253 258.535 99.4611 350.021 76.6435C441.506 53.826 500.62 50.9738 561.141 76.6435C621.662 102.313 668.109 206.418 668.109 250.627C668.109 294.836 646.997 390.385 589.29 436.02C543.125 472.528 459.334 490.212 423.209 494.49L399.282 503.046C418.048 505.899 465.152 509.892 503.435 503.046C541.718 496.201 570.055 494.49 579.438 494.49L589.29 511.603C571.462 522.536 529.332 544.689 503.435 545.829C471.063 547.255 409.134 544.403 399.282 557.238C396.715 560.582 393.671 567.895 390.721 577.31L383.334 674.607C388.578 699.965 391.422 751.427 392.245 776.857L561.141 822.492C485.138 829.623 326.375 843.028 299.352 839.605C272.328 836.183 234.608 832.475 219.126 831.049C214.904 828.197 215.748 822.492 252.905 822.492H433.061C438.69 822.492 389.431 805.379 380.985 791.118C374.229 779.709 378.17 729.321 380.985 705.552L383.334 674.607C382.599 671.05 381.816 668.007 380.985 665.622C374.741 647.694 382.349 604.034 390.721 577.31L392.245 557.238C388.022 553.435 379.014 542.407 376.762 528.716C374.51 515.026 378.639 505.899 380.985 503.046Z" fill="#D99459"/>
<path d="M380.985 503.046C342.045 488.31 261.913 434.879 252.905 339.045C241.646 219.253 258.535 99.4611 350.021 76.6435C441.506 53.826 500.62 50.9738 561.141 76.6435C621.662 102.313 668.109 206.418 668.109 250.627C668.109 294.836 646.997 390.385 589.29 436.02C543.125 472.528 459.334 490.212 423.209 494.49L399.282 503.046C418.048 505.899 465.152 509.892 503.435 503.046C541.718 496.201 570.055 494.49 579.438 494.49L589.29 511.603C571.462 522.536 529.332 544.689 503.435 545.829C471.063 547.255 409.134 544.403 399.282 557.238C389.43 570.073 372.54 641.378 380.985 665.622C387.741 685.016 391.306 747.86 392.245 776.857L561.141 822.492C485.138 829.623 326.375 843.028 299.352 839.605C272.328 836.183 234.608 832.475 219.126 831.049C214.904 828.197 215.748 822.492 252.905 822.492C299.352 822.492 427.431 822.492 433.061 822.492C438.69 822.492 389.431 805.379 380.985 791.118C374.228 779.709 378.17 729.321 380.985 705.552L392.245 557.238C388.022 553.435 379.014 542.407 376.762 528.716C374.51 515.026 378.639 505.899 380.985 503.046Z" stroke="#D99459"/>
</g>
</g>
<g id="Stroke">
<path id="Vector 73_2" d="M228.729 820.011C221.978 826.726 191.602 840.155 437.99 840.155C684.379 840.155 529.12 806.581 461.616 796.509C394.112 786.437 397.487 803.224 394.112 742.79C390.737 682.357 394.112 625.281 400.863 595.064C407.613 564.848 397.487 551.418 498.743 541.346C599.999 531.274 603.374 521.201 603.374 504.414C603.374 487.627 606.749 480.913 572.997 487.627C539.245 494.342 451.49 524.558 363.736 487.627C293.532 458.083 239.979 392.502 221.978 363.404C203.977 343.26 174.05 319.086 198.351 383.548C228.729 464.126 356.985 534.631 370.485 531.274C383.986 527.916 390.737 480.913 431.239 477.555C471.741 474.198 599.998 480.912 654.001 370.118C708.004 259.324 708.004 155.244 596.623 78.0237C485.242 0.80331 380.611 24.3052 296.231 98.1681C211.852 172.031 228.728 360.046 319.858 423.837C392.762 474.869 415.488 449.577 417.738 430.552C424.488 431.671 440.014 432.566 448.115 427.194C458.24 420.479 471.741 390.263 488.617 400.335C505.493 410.407 569.621 360.046 569.621 336.544C569.621 313.042 566.246 292.898 586.497 276.111C606.748 259.324 633.75 232.465 620.249 232.465C606.748 232.465 593.248 205.605 589.873 188.818C586.497 172.031 589.873 138.457 562.871 135.1C535.87 131.742 522.369 94.8109 505.493 94.8109C488.617 94.8109 427.864 118.313 417.738 158.602C407.613 198.89 431.239 215.678 454.865 222.392C478.491 229.107 498.743 269.396 481.867 292.898C464.991 316.4 464.991 343.259 471.741 356.689C478.491 370.118 475.116 380.192 461.615 383.548C448.115 386.905 414.363 400.335 407.613 396.977" stroke="#D99459" stroke-width="16" stroke-linecap="round" stroke-linejoin="round"/>
</g>
</g>
</svg>
