<svg width="886" height="878" viewBox="0 0 886 878" fill="none" xmlns="http://www.w3.org/2000/svg">
<g id="InclusiveThrivingCommunityM">
<g id="Fill">
<path id="Vector 55" opacity="0.2" d="M44.7499 701.583C33.4365 670.76 13.234 596.618 22.9312 546.635C35.0527 484.155 35.0534 424.175 44.7499 411.68C54.4463 399.184 76.265 374.192 102.932 371.693C115.939 371.693 134.33 367.696 153.612 360.299C126.753 346.623 93.7195 322.027 76.265 294.219C49.5977 251.733 93.235 184.255 144.145 171.759C195.056 159.263 241.117 191.753 245.966 259.23C249.369 306.595 199.021 342.878 153.612 360.299C167.789 367.517 180.245 371.693 187.783 371.693C209.601 371.693 262.936 351.699 279.906 424.175C296.876 496.651 342.938 659.097 342.938 701.583C342.938 744.069 260.512 719.077 202.328 721.576C144.145 724.076 66.5685 724.076 44.7499 701.583Z" fill="#D99459"/>
<path id="Vector 56" opacity="0.2" d="M332.107 163.877C337.925 119.892 395.947 107.23 424.23 106.396C506.657 118.892 538.172 176.373 523.624 248.849C512.987 301.839 449.219 324.102 410.961 336.15C411.345 336.214 411.728 336.271 412.109 336.32C431.503 338.819 521.202 356.313 538.172 366.31C555.142 376.307 603.628 476.273 608.477 503.764C613.326 531.255 615.75 561.245 618.174 591.234L618.174 591.235C620.598 621.225 618.174 641.219 618.174 663.711C618.174 686.204 618.174 708.696 608.477 718.693C598.78 728.69 598.78 743.685 584.234 753.681C569.688 763.678 589.083 768.676 555.142 771.175C521.202 773.675 496.959 771.175 424.23 771.175H290.894C271.5 771.175 244.832 646.217 247.257 591.235C249.681 536.254 266.646 421.292 278.77 408.796C290.894 396.3 312.715 356.313 332.107 346.317C351.499 336.32 370.893 356.313 383.015 346.317C386.274 343.629 396.892 340.58 410.961 336.15C391.762 332.933 367.948 310.641 341.804 276.34C315.137 241.352 324.834 218.859 332.107 163.877Z" fill="#D99459"/>
<path id="Vector 57" opacity="0.2" d="M734.299 166.761C758.542 170.093 807.998 187.254 811.877 229.24C816.725 281.723 807.028 329.207 763.391 344.202C745.16 350.467 728.621 351.061 712.891 352.18C730.961 355.588 750.001 356.529 763.391 361.696C792.482 372.924 794.906 376.691 811.877 376.691C828.848 376.691 836.119 376.691 848.241 396.685C860.362 416.678 872.483 434.172 882.181 491.653C891.878 549.134 879.756 531.64 882.181 556.631C884.605 581.623 862.786 686.588 857.938 706.582C853.089 726.575 811.877 729.074 777.936 729.074C743.995 729.074 613.087 771.56 571.871 779.058C530.656 786.555 554.901 749.067 554.901 729.074C554.901 709.081 552.477 681.59 554.901 641.603C557.326 601.617 564.599 569.127 571.871 531.64C579.144 494.152 613.084 411.68 649.449 376.691C670.621 356.321 690.971 353.74 712.891 352.18C691.701 348.183 671.844 340.792 663.994 319.21C649.449 279.224 649.449 279.224 649.449 254.232C649.449 229.24 634.904 229.24 649.449 204.249C663.994 179.257 690.66 166.761 719.753 166.761H734.299Z" fill="#D99459"/>
</g>
<g id="Stroke">
<path id="Vector 58" d="M32.9791 680.562C23.6989 661.064 5.75718 608.524 8.23191 554.343C11.3253 486.616 17.7181 415.625 39.1666 388.103C66.7747 352.678 97.7087 349.599 125.549 349.599C153.39 349.599 181.463 351.161 206.21 323.455C230.958 295.748 243.331 215.707 206.21 188C169.09 160.294 107.222 147.98 73.1941 212.628C39.1666 277.277 91.7545 338.847 119.595 345.004C147.436 351.161 230.958 357.318 255.705 394.26C280.452 431.202 305.199 569.735 314.48 612.834C323.76 655.933 333.04 751.367 314.48 757.524C295.919 763.681 264.985 612.834 280.452 523.558C295.919 434.281 292.826 369.632 348.507 357.318C404.188 345.004 500.084 348.083 524.831 298.827C549.578 249.57 546.485 166.451 490.804 132.587C435.122 98.7236 376.348 132.587 354.694 172.608C333.04 212.628 342.32 308.062 404.188 329.611C466.056 351.161 537.205 357.317 561.952 375.789C586.699 394.26 623.82 492.772 623.82 575.892C623.82 659.012 599.073 763.681 580.512 751.367C561.952 739.053 580.512 591.284 602.166 505.086C623.82 418.888 617.633 369.632 673.314 360.396C728.996 351.161 787.77 348.083 803.237 323.455C818.704 298.827 831.078 274.198 824.891 231.099C818.704 188 753.743 132.587 694.968 178.764C636.194 224.942 673.314 305.278 694.968 329.611C716.622 353.945 806.331 357.318 824.891 369.632C843.452 381.946 880.572 385.024 877.479 502.008C874.386 618.991 874.386 643.619 852.732 680.561" stroke="#D99459" stroke-width="16" stroke-linecap="round" stroke-linejoin="round"/>
</g>
</g>
</svg>
