<svg width="878" height="894" viewBox="0 0 878 894" fill="none" xmlns="http://www.w3.org/2000/svg">
<g id="ProtectedSustainableEcosystemsL">
<g id="Fill">
<path id="Vector 74" opacity="0.2" d="M257.545 579.634C268.538 598.926 357.395 609.108 400.45 611.788L433.425 627.865L485.64 893.138C478.312 830.616 462.556 694.317 458.159 649.301C453.762 604.285 447.166 584.099 444.418 579.634L502.129 611.788L576.33 598.39C608.391 582.313 674.164 533.01 680.76 464.414C687.355 395.818 619.384 316.147 584.574 284.886L444.418 158.948H433.425L326.247 255.411C288.69 286.672 211.926 364.2 205.33 424.221C197.086 499.248 243.805 555.518 257.545 579.634Z" fill="#D99459"/>
</g>
<g id="Stroke">
<path id="Vector 74_2" d="M485.168 878C474.761 793.037 447.01 619.619 419.259 605.652C384.57 588.194 318.168 626.76 248.788 549.944C188.253 482.921 176.438 361.238 297.848 252.997C419.259 144.756 471.294 102.856 464.356 60.9566C457.418 19.0569 405.385 1.59876 415.792 60.9566C426.198 120.314 599.642 232.047 644.737 312.354C689.833 392.662 696.77 465.986 644.737 539.311C592.704 612.635 485.169 609.144 464.356 584.702C443.543 560.261 415.792 465.986 505.982 420.595C596.173 375.204 540.671 438.053 512.92 448.528C485.169 459.003 443.543 490.428 391.509 406.629C339.476 322.829 356.821 424.087 398.447 448.528C440.074 472.97 457.418 438.053 457.418 378.695C457.418 319.338 492.107 242.522 512.92 277.438C533.733 312.354 447.011 322.829 436.605 277.438C426.198 232.047 450.48 270.455 453.949 273.946" stroke="#D99459" stroke-width="16" stroke-linecap="round" stroke-linejoin="round"/>
</g>
</g>
</svg>
