<svg width="878" height="878" viewBox="0 0 878 878" fill="none" xmlns="http://www.w3.org/2000/svg">
<g id="SmartInnovativeSocietyL">
<g id="Fill">
<path id="Vector 75" opacity="0.2" d="M430.459 821.253L461.409 838.9L474.672 847.724L492.357 812.429L518.886 785.958C524.782 775.664 537.457 752.428 540.994 741.84C544.531 731.251 518.886 722.721 505.622 719.78C515.939 710.957 536.572 692.427 536.572 688.897C536.572 685.368 524.782 669.779 518.886 662.426C524.782 658.014 536.572 646.543 536.572 635.955C536.572 625.367 521.834 616.837 514.465 613.896C520.36 612.425 533.035 604.19 536.572 583.013C540.109 561.836 526.255 535.953 518.886 525.659L532.151 512.423L607.316 437.421L673.638 283.006L647.109 133.003L532.151 31.5306L386.244 22.7069L293.391 88.8848L227.069 225.652C238.86 288.889 263.325 419.774 266.862 437.421C270.399 455.069 353.818 527.129 395.085 560.953C386.244 559.483 368.561 560.953 368.561 578.601C368.561 596.248 380.35 615.366 386.244 622.719V662.426C381.824 663.897 372.099 672.132 368.561 693.309C364.14 719.78 399.508 715.368 386.244 737.428C375.633 755.075 405.404 768.311 421.616 772.723L430.459 821.253Z" fill="#D99459"/>
</g>
<g id="Stroke">
<path id="Vector 75_2" d="M428.879 814.233V855.293H481.122C478.634 847.828 477.39 829.911 492.317 817.966C510.975 803.035 552.023 776.906 507.243 780.638C462.463 784.371 387.83 803.035 384.099 758.242C380.367 713.449 525.901 758.242 525.901 705.984C525.901 653.726 376.634 709.717 369.171 649.993C361.708 590.269 533.362 646.26 529.632 597.735C525.901 549.209 436.341 586.536 395.293 575.338C354.245 564.14 249.758 452.157 223.637 299.115C197.515 146.073 298.27 7.96184 436.341 15.4273C574.412 22.8928 682.629 146.073 663.971 299.115C645.313 452.158 548.292 538.011 492.317 534.278C436.341 530.545 454.998 440.959 477.388 317.779C499.778 194.599 544.558 205.797 537.095 261.788C529.632 317.779 455 317.779 436.341 317.779C417.682 317.779 357.976 314.047 354.244 269.254C350.512 224.461 402.755 168.47 413.95 347.641C425.145 526.812 428.877 500.683 425.145 519.347" stroke="#D99459" stroke-width="16" stroke-linecap="round" stroke-linejoin="round"/>
</g>
</g>
</svg>
